<mxfile host="app.diagrams.net" modified="2023-10-12T13:53:33.238Z" agent="Mozilla/5.0 (Windows NT 10.0; Win64; x64) AppleWebKit/537.36 (KHTML, like Gecko) Chrome/117.0.0.0 Safari/537.36" etag="Nf67a494uQ8trG2PI9vy" version="22.0.4" type="google">
  <diagram name="Page-1" id="b5b7bab2-c9e2-2cf4-8b2a-24fd1a2a6d21">
    <mxGraphModel grid="1" page="1" gridSize="10" guides="1" tooltips="1" connect="1" arrows="1" fold="1" pageScale="1" pageWidth="827" pageHeight="1169" background="none" math="0" shadow="0">
      <root>
        <mxCell id="0" />
        <mxCell id="1" parent="0" />
        <mxCell id="6e0c8c40b5770093-72" value="" style="shape=folder;fontStyle=1;spacingTop=10;tabWidth=90;tabHeight=20;tabPosition=left;html=1;rounded=0;shadow=0;comic=0;labelBackgroundColor=none;strokeWidth=1;fillColor=none;fontFamily=Verdana;fontSize=10;align=center;" vertex="1" parent="1">
          <mxGeometry x="174" y="40" width="493.5" height="485" as="geometry" />
        </mxCell>
        <mxCell id="kLl_CLZX0c-RPI3mH3_3-2" value="End User" style="shape=umlActor;verticalLabelPosition=bottom;verticalAlign=top;html=1;" vertex="1" parent="1">
          <mxGeometry x="34" y="161.25" width="90" height="222.5" as="geometry" />
        </mxCell>
        <mxCell id="kLl_CLZX0c-RPI3mH3_3-3" value="&lt;b&gt;Tier System&lt;/b&gt;" style="text;html=1;align=center;verticalAlign=middle;resizable=0;points=[];autosize=1;strokeColor=none;fillColor=none;" vertex="1" parent="1">
          <mxGeometry x="174" y="40" width="90" height="30" as="geometry" />
        </mxCell>
        <mxCell id="kLl_CLZX0c-RPI3mH3_3-4" value="End Ride and payment" style="ellipse;whiteSpace=wrap;html=1;" vertex="1" parent="1">
          <mxGeometry x="214" y="420" width="140" height="70" as="geometry" />
        </mxCell>
        <mxCell id="kLl_CLZX0c-RPI3mH3_3-5" value="Scooter ride" style="ellipse;whiteSpace=wrap;html=1;" vertex="1" parent="1">
          <mxGeometry x="214" y="340" width="140" height="70" as="geometry" />
        </mxCell>
        <mxCell id="kLl_CLZX0c-RPI3mH3_3-6" value="Unlock scooter" style="ellipse;whiteSpace=wrap;html=1;" vertex="1" parent="1">
          <mxGeometry x="214" y="260" width="140" height="70" as="geometry" />
        </mxCell>
        <mxCell id="kLl_CLZX0c-RPI3mH3_3-7" value="Locate and Rent" style="ellipse;whiteSpace=wrap;html=1;" vertex="1" parent="1">
          <mxGeometry x="214" y="180" width="140" height="70" as="geometry" />
        </mxCell>
        <mxCell id="kLl_CLZX0c-RPI3mH3_3-8" value="User Registeration" style="ellipse;whiteSpace=wrap;html=1;" vertex="1" parent="1">
          <mxGeometry x="218" y="100" width="140" height="70" as="geometry" />
        </mxCell>
        <mxCell id="kLl_CLZX0c-RPI3mH3_3-9" value="" style="endArrow=classic;html=1;rounded=0;" edge="1" parent="1" source="kLl_CLZX0c-RPI3mH3_3-2" target="kLl_CLZX0c-RPI3mH3_3-8">
          <mxGeometry width="50" height="50" relative="1" as="geometry">
            <mxPoint x="264" y="350" as="sourcePoint" />
            <mxPoint x="314" y="300" as="targetPoint" />
          </mxGeometry>
        </mxCell>
        <mxCell id="kLl_CLZX0c-RPI3mH3_3-10" value="" style="endArrow=classic;html=1;rounded=0;" edge="1" parent="1" source="kLl_CLZX0c-RPI3mH3_3-2" target="kLl_CLZX0c-RPI3mH3_3-7">
          <mxGeometry width="50" height="50" relative="1" as="geometry">
            <mxPoint x="134" y="246" as="sourcePoint" />
            <mxPoint x="254" y="172" as="targetPoint" />
          </mxGeometry>
        </mxCell>
        <mxCell id="kLl_CLZX0c-RPI3mH3_3-11" value="" style="endArrow=classic;html=1;rounded=0;" edge="1" parent="1" source="kLl_CLZX0c-RPI3mH3_3-2" target="kLl_CLZX0c-RPI3mH3_3-6">
          <mxGeometry width="50" height="50" relative="1" as="geometry">
            <mxPoint x="144" y="256" as="sourcePoint" />
            <mxPoint x="264" y="182" as="targetPoint" />
          </mxGeometry>
        </mxCell>
        <mxCell id="kLl_CLZX0c-RPI3mH3_3-12" value="" style="endArrow=classic;html=1;rounded=0;" edge="1" parent="1" source="kLl_CLZX0c-RPI3mH3_3-2" target="kLl_CLZX0c-RPI3mH3_3-5">
          <mxGeometry width="50" height="50" relative="1" as="geometry">
            <mxPoint x="154" y="266" as="sourcePoint" />
            <mxPoint x="274" y="192" as="targetPoint" />
          </mxGeometry>
        </mxCell>
        <mxCell id="kLl_CLZX0c-RPI3mH3_3-13" value="" style="endArrow=classic;html=1;rounded=0;" edge="1" parent="1" source="kLl_CLZX0c-RPI3mH3_3-2" target="kLl_CLZX0c-RPI3mH3_3-4">
          <mxGeometry width="50" height="50" relative="1" as="geometry">
            <mxPoint x="164" y="276" as="sourcePoint" />
            <mxPoint x="284" y="202" as="targetPoint" />
          </mxGeometry>
        </mxCell>
        <mxCell id="kLl_CLZX0c-RPI3mH3_3-14" value="Maintenance Guy" style="shape=umlActor;verticalLabelPosition=bottom;verticalAlign=top;html=1;" vertex="1" parent="1">
          <mxGeometry x="714" y="163.75" width="80" height="186.25" as="geometry" />
        </mxCell>
        <mxCell id="kLl_CLZX0c-RPI3mH3_3-16" value="Bring scooter back online" style="ellipse;whiteSpace=wrap;html=1;" vertex="1" parent="1">
          <mxGeometry x="464" y="297.5" width="140" height="70" as="geometry" />
        </mxCell>
        <mxCell id="kLl_CLZX0c-RPI3mH3_3-17" value="Take scooter offline and repair" style="ellipse;whiteSpace=wrap;html=1;" vertex="1" parent="1">
          <mxGeometry x="464" y="217.5" width="140" height="70" as="geometry" />
        </mxCell>
        <mxCell id="kLl_CLZX0c-RPI3mH3_3-18" value="Locate Scooter that needs maintenance" style="ellipse;whiteSpace=wrap;html=1;" vertex="1" parent="1">
          <mxGeometry x="468" y="137.5" width="140" height="70" as="geometry" />
        </mxCell>
        <mxCell id="kLl_CLZX0c-RPI3mH3_3-19" value="" style="endArrow=classic;html=1;rounded=0;" edge="1" parent="1" source="kLl_CLZX0c-RPI3mH3_3-14" target="kLl_CLZX0c-RPI3mH3_3-18">
          <mxGeometry width="50" height="50" relative="1" as="geometry">
            <mxPoint x="374" y="273.74259602939765" as="sourcePoint" />
            <mxPoint x="564" y="337.5" as="targetPoint" />
          </mxGeometry>
        </mxCell>
        <mxCell id="kLl_CLZX0c-RPI3mH3_3-20" value="" style="endArrow=classic;html=1;rounded=0;" edge="1" parent="1" source="kLl_CLZX0c-RPI3mH3_3-14" target="kLl_CLZX0c-RPI3mH3_3-17">
          <mxGeometry width="50" height="50" relative="1" as="geometry">
            <mxPoint x="374" y="298.45744680851067" as="sourcePoint" />
            <mxPoint x="504" y="209.5" as="targetPoint" />
          </mxGeometry>
        </mxCell>
        <mxCell id="kLl_CLZX0c-RPI3mH3_3-21" value="" style="endArrow=classic;html=1;rounded=0;" edge="1" parent="1" source="kLl_CLZX0c-RPI3mH3_3-14" target="kLl_CLZX0c-RPI3mH3_3-16">
          <mxGeometry width="50" height="50" relative="1" as="geometry">
            <mxPoint x="374" y="324.10140743952684" as="sourcePoint" />
            <mxPoint x="514" y="219.5" as="targetPoint" />
          </mxGeometry>
        </mxCell>
      </root>
    </mxGraphModel>
  </diagram>
</mxfile>
